<svg width="677" height="491" viewBox="0 0 677 491" fill="none" xmlns="http://www.w3.org/2000/svg">
<g id="delivery_svg" clip-path="url(#clip0)">
<g id="bgnd">
<path id="Vector" d="M487.27 287.606L492.597 284.33C493.103 284.01 493.602 283.669 494.115 283.349C482.691 281.391 472.28 275.604 464.605 266.946C456.931 258.287 452.454 247.277 451.915 235.737C451.523 227.801 453.029 219.885 456.307 212.642C459.36 205.865 463.867 199.838 469.512 194.986C475.156 190.133 481.799 186.574 488.974 184.558L488.71 205.451L500.227 182.711C500.274 182.703 500.322 182.703 500.369 182.711C507.043 182.4 513.713 183.403 519.997 185.661C526.282 187.919 532.059 191.389 536.998 195.872C541.938 200.355 545.942 205.764 548.784 211.79C551.625 217.816 553.248 224.34 553.559 230.99C553.602 231.957 553.559 232.909 553.559 233.833C557.566 229.278 561.203 224.396 563.613 219.045C568.491 208.208 568.605 195.935 568.199 181.019C567.428 151.458 566.152 121.675 564.483 91.9785C552.459 90.6477 541.305 85.0876 533.025 76.297C524.745 67.5064 519.882 56.0616 519.309 44.0186C519.238 42.4623 519.259 40.9345 519.309 39.4138C519.309 39.0371 519.309 38.6534 519.366 38.2768C519.466 36.8058 519.601 35.349 519.83 33.9136C519.83 33.6719 519.915 33.4445 519.958 33.2029C520.167 31.9854 520.417 30.7821 520.707 29.593C520.821 29.1524 520.928 28.7047 521.049 28.2641C521.406 26.9708 521.762 25.6988 522.254 24.441C522.404 24.0217 522.582 23.6166 522.739 23.2045C523.103 22.2807 523.495 21.3711 523.908 20.4686C524.129 19.9925 524.343 19.5235 524.579 19.0473C524.636 18.9265 524.686 18.8057 524.75 18.6849C530.119 8.11682 539.034 -0.242278 549.946 -4.93938C560.858 -9.63649 573.077 -10.3746 584.478 -7.02539L584.136 20.163L595.546 -2.29264C604.904 3.04569 612.305 11.2261 616.667 21.0537C621.029 30.8813 622.123 41.8413 619.791 52.3329H619.848C619.769 52.6953 619.655 53.0435 619.57 53.3988C619.413 54.0668 619.242 54.7277 619.056 55.3886C618.814 56.2342 618.543 57.0656 618.265 57.8971C618.051 58.5153 617.844 59.1477 617.609 59.7589C617.266 60.6543 616.896 61.5283 616.482 62.4024C616.254 62.914 616.047 63.4328 615.769 63.9373C615.118 65.2449 614.405 66.524 613.63 67.7747C613.366 68.2082 613.066 68.6203 612.788 69.0538C612.246 69.8924 611.697 70.7238 611.105 71.5339C610.742 72.0313 610.349 72.5074 609.964 72.9978C609.408 73.7084 608.838 74.419 608.246 75.0657C607.825 75.5418 607.397 76.0108 606.955 76.4869C606.335 77.1407 605.693 77.7732 605.03 78.3985C604.595 78.8178 604.153 79.237 603.696 79.635C602.948 80.2959 602.163 80.9283 601.372 81.5466C600.972 81.8592 600.587 82.1861 600.174 82.4846C598.971 83.3752 597.728 84.2114 596.444 84.9931C596.202 85.1352 595.945 85.256 595.731 85.3981C594.661 86.0306 593.592 86.6204 592.444 87.1747C591.966 87.4092 591.467 87.6153 590.975 87.8356C590.055 88.2477 589.128 88.6457 588.179 89.0081C587.63 89.2142 587.067 89.406 586.504 89.5979C585.57 89.9177 584.621 90.209 583.651 90.472C583.081 90.6283 582.517 90.7846 581.94 90.9197C580.899 91.1684 579.836 91.3745 578.767 91.5521C578.695 91.5521 578.631 91.5521 578.56 91.5948C579.263 104.121 579.889 116.654 580.435 129.194C583.468 122.989 587.742 117.467 592.993 112.967C598.244 108.466 604.363 105.083 610.973 103.023C617.584 100.964 624.547 100.272 631.435 100.99C638.323 101.708 644.992 103.822 651.031 107.2L642.039 131.752L660.537 114.05C670.439 123.095 676.337 135.684 676.938 149.056C677.173 153.748 676.739 158.449 675.647 163.019C673.324 172.909 668.071 181.875 660.571 188.754C653.071 195.632 643.67 200.106 633.587 201.594C623.504 203.083 613.205 201.517 604.026 197.101C594.847 192.684 587.212 185.621 582.111 176.827C582.111 178.099 582.204 179.378 582.239 180.65C582.575 193.811 582.995 210.183 576.413 224.808C571.957 234.721 564.776 242.773 557.681 249.985C553.067 254.683 548.282 259.223 543.376 263.622C538.552 270.077 532.255 275.295 525.007 278.844C516.949 285.031 508.605 290.825 499.977 296.226L494.736 299.594C489.894 302.586 484.931 305.655 480.06 308.832C480.916 308.747 481.765 308.654 482.635 308.619C493.415 308.115 504.078 311.04 513.081 316.971C522.084 322.902 528.963 331.531 532.722 341.613L500.933 367.401L535.874 359.322C535.865 367.894 533.675 376.325 529.509 383.825C525.343 391.326 519.337 397.652 512.053 402.212C504.768 406.772 496.442 409.418 487.854 409.902C479.265 410.386 470.693 408.692 462.939 404.979C463.723 405.96 464.515 406.933 465.299 407.907C466.861 409.847 468.416 411.773 469.935 413.684C490.614 439.785 496.376 464.572 486.129 483.467L473.678 476.759C483.662 458.368 468.687 434.832 458.825 422.425C457.334 420.549 455.808 418.659 454.268 416.74C441.054 400.396 426.079 381.834 426.457 359.087C426.992 324.835 460.429 304.177 487.27 287.606Z" fill="#F2F2F2"/>
<path id="Vector_2" d="M324.813 491C504.203 491 649.627 484.319 649.627 476.077C649.627 467.835 504.203 461.154 324.813 461.154C145.424 461.154 0 467.835 0 476.077C0 484.319 145.424 491 324.813 491Z" fill="#3F3D56"/>
<path id="Vector_3" d="M587.224 470.513C589.363 466.597 586.938 461.8 584.172 458.304C581.405 454.808 578.032 451.198 578.103 446.728C578.203 440.333 585.013 436.559 590.461 433.17C594.496 430.651 598.217 427.668 601.55 424.28C602.948 422.976 604.105 421.436 604.965 419.732C606.085 417.23 606.056 414.388 605.985 411.645C605.747 402.52 605.296 393.405 604.63 384.3" stroke="#3F3D56" stroke-width="2.30818" stroke-miterlimit="10"/>
<path id="Vector_4" d="M614.977 383.817C614.898 382.147 614.399 380.524 613.527 379.097C612.655 377.669 611.437 376.482 609.986 375.645L607.747 380.065L607.811 374.721C606.279 374.264 604.66 374.18 603.089 374.476C601.518 374.772 600.042 375.44 598.784 376.423C597.526 377.407 596.523 378.677 595.861 380.127C595.198 381.576 594.894 383.164 594.975 384.755C595.1 387.393 596.271 389.875 598.232 391.652C599.203 392.533 600.338 393.214 601.573 393.657C602.808 394.1 604.118 394.296 605.429 394.235C606.74 394.173 608.026 393.855 609.214 393.298C610.401 392.741 611.467 391.956 612.35 390.989C613.234 390.022 613.917 388.89 614.362 387.66C614.806 386.429 615.003 385.123 614.942 383.817H614.977Z" fill="#57B793"/>
<path id="Vector_5" d="M597.129 451.326C596.081 453.354 594.365 454.962 592.269 455.88C590.173 456.798 587.824 456.97 585.615 456.368C583.407 455.765 581.474 454.424 580.14 452.57C578.805 450.716 578.151 448.461 578.287 446.183C578.422 443.906 579.339 441.744 580.884 440.06C582.429 438.376 584.508 437.272 586.772 436.934C589.036 436.595 591.348 437.043 593.321 438.201C595.293 439.359 596.806 441.158 597.606 443.296L591.36 448.363L598.234 446.771C598.235 448.355 597.856 449.917 597.129 451.326V451.326Z" fill="#57B793"/>
<path id="Vector_6" d="M592.187 431.933C590.874 431.996 589.561 431.8 588.324 431.356C587.087 430.912 585.951 430.229 584.979 429.347C584.008 428.464 583.221 427.399 582.664 426.212C582.107 425.025 581.791 423.741 581.733 422.432C581.653 420.872 581.949 419.315 582.596 417.891C583.195 416.558 584.08 415.372 585.189 414.417C586.298 413.462 587.603 412.761 589.014 412.363L588.964 416.477L591.231 412C593.884 411.877 596.477 412.808 598.44 414.59C600.403 416.372 601.576 418.858 601.699 421.501C601.823 424.144 600.888 426.728 599.101 428.685C597.313 430.641 594.818 431.81 592.165 431.933H592.187Z" fill="#57B793"/>
<path id="Vector_7" d="M616.482 415.795C613.834 415.919 611.245 414.99 609.285 413.213C607.324 411.435 606.153 408.954 606.028 406.315C605.903 403.676 606.835 401.097 608.619 399.143C610.403 397.189 612.893 396.022 615.541 395.897C617.412 395.805 619.272 396.244 620.903 397.162L619.135 401.995L622.771 398.512C624.723 400.29 625.887 402.766 626.009 405.398C626.054 406.32 625.968 407.244 625.752 408.141C625.253 410.248 624.078 412.136 622.405 413.517C620.732 414.898 618.652 415.698 616.482 415.795V415.795Z" fill="#57B793"/>
<path id="Vector_8" opacity="0.1" d="M613.63 386.446C611.319 386.702 609.073 387.42 606.755 387.562C604.438 387.704 601.892 387.15 600.423 385.352C599.632 384.385 599.239 383.163 598.569 382.111C597.938 381.129 597.073 380.316 596.052 379.745C595.448 381.003 595.116 382.373 595.078 383.767C595.04 385.161 595.296 386.547 595.83 387.836C596.364 389.125 597.164 390.287 598.178 391.248C599.192 392.209 600.398 392.947 601.716 393.413C603.035 393.88 604.437 394.065 605.832 393.957C607.227 393.849 608.584 393.45 609.814 392.785C611.044 392.121 612.12 391.207 612.973 390.101C613.826 388.995 614.436 387.724 614.763 386.368C614.378 386.382 614 386.411 613.63 386.446Z" fill="black"/>
<path id="Vector_9" opacity="0.1" d="M616.482 415.795C614.756 415.882 613.037 415.521 611.492 414.748C609.948 413.974 608.632 412.815 607.673 411.382C606.713 409.95 606.143 408.294 606.019 406.576C605.894 404.858 606.219 403.137 606.962 401.582C607.757 402.117 608.439 402.8 608.973 403.594C609.686 404.667 610.114 405.903 610.955 406.891C612.51 408.717 615.177 409.314 617.594 409.2C620.012 409.087 622.336 408.412 624.725 408.191C625.053 408.191 625.396 408.134 625.731 408.127C625.235 410.234 624.065 412.122 622.396 413.505C620.727 414.889 618.65 415.693 616.482 415.795Z" fill="black"/>
<path id="Vector_10" opacity="0.1" d="M592.187 431.933C590.874 431.996 589.561 431.8 588.324 431.356C587.087 430.912 585.951 430.229 584.979 429.347C584.008 428.464 583.221 427.399 582.664 426.212C582.107 425.025 581.791 423.741 581.733 422.432C581.653 420.872 581.949 419.315 582.596 417.891C583.426 418.432 584.151 419.118 584.735 419.916C585.512 421.011 585.997 422.269 586.874 423.278C588.564 425.154 591.403 425.815 593.962 425.751C596.522 425.687 598.826 425.09 601.293 424.905C600.684 426.867 599.483 428.595 597.854 429.852C596.224 431.11 594.246 431.836 592.187 431.933Z" fill="black"/>
<path id="Vector_11" opacity="0.1" d="M597.129 451.326C596.59 452.52 595.821 453.597 594.865 454.494C593.909 455.392 592.785 456.094 591.557 456.558C590.329 457.023 589.021 457.243 587.708 457.204C586.395 457.165 585.103 456.869 583.904 456.332C582.706 455.796 581.626 455.029 580.725 454.076C579.824 453.124 579.12 452.004 578.654 450.78C578.187 449.556 577.967 448.253 578.006 446.944C578.045 445.636 578.342 444.348 578.881 443.154C579.702 443.698 580.442 444.356 581.077 445.108C582.025 446.266 582.653 447.574 583.758 448.661C585.805 450.658 589.106 451.504 592.044 451.56C593.742 451.583 595.44 451.504 597.129 451.326V451.326Z" fill="black"/>
<path id="Vector_12" d="M572.135 466C572.135 466 580.029 465.759 582.411 464.067C584.792 462.376 594.533 460.358 595.154 463.073C595.774 465.787 607.027 476.574 598.106 476.617C589.185 476.66 577.383 475.196 575.009 473.775C572.634 472.353 572.135 466 572.135 466Z" fill="#656380"/>
<path id="Vector_13" opacity="0.2" d="M598.263 475.672C589.349 475.743 577.54 474.251 575.165 472.829C573.361 471.735 572.634 467.791 572.399 465.972H572.135C572.135 465.972 572.634 472.318 574.987 473.789C577.34 475.26 589.163 476.688 598.084 476.631C600.658 476.631 601.55 475.693 601.5 474.343C601.165 475.146 600.181 475.658 598.263 475.672Z" fill="black"/>
<path id="Vector_14" d="M138.632 448.59C133.455 439.039 139.345 427.342 146.077 418.829C152.808 410.316 161.052 401.462 160.873 390.61C160.617 375.019 144.016 365.817 130.752 357.552C120.91 351.419 111.831 344.146 103.705 335.885C100.446 332.567 97.2871 329.028 95.3902 324.793C92.652 318.695 92.7233 311.767 92.9016 305.087C93.472 282.821 94.5749 260.597 96.2103 238.416" stroke="#3F3D56" stroke-width="2.30818" stroke-miterlimit="10"/>
<path id="Vector_15" d="M70.9882 237.201C71.1835 233.133 72.4011 229.18 74.5292 225.703C76.6573 222.227 79.6278 219.338 83.1678 217.304L88.6301 228.07L88.4661 215.037C93.4285 213.58 98.7272 213.732 103.597 215.471C108.467 217.211 112.656 220.448 115.56 224.715C118.463 228.982 119.931 234.058 119.751 239.21C119.57 244.362 117.752 249.324 114.557 253.379C111.363 257.434 106.957 260.373 101.978 261.77C96.9981 263.167 91.7016 262.952 86.8531 261.154C82.0046 259.356 77.8549 256.069 75.0033 251.767C72.1517 247.466 70.7456 242.372 70.9882 237.223V237.201Z" fill="#57B793"/>
<path id="Vector_16" d="M114.501 401.753C116.954 406.517 120.918 410.341 125.775 412.629C130.633 414.918 136.114 415.544 141.365 414.41C146.617 413.275 151.345 410.444 154.816 406.357C158.287 402.269 160.306 397.153 160.56 391.804C160.73 388.442 160.188 385.081 158.97 381.941C157.188 377.335 154.042 373.378 149.95 370.597C145.857 367.816 141.013 366.342 136.059 366.37C131.106 366.399 126.279 367.929 122.219 370.757C118.16 373.585 115.06 377.578 113.332 382.204L128.57 394.554L111.806 390.667C111.799 394.524 112.723 398.327 114.501 401.753Z" fill="#57B793"/>
<path id="Vector_17" d="M126.545 354.553C132.528 354.826 138.402 352.897 143.05 349.133C147.697 345.369 150.793 340.033 151.749 334.142C152.705 328.25 151.453 322.214 148.232 317.183C145.011 312.152 140.046 308.476 134.282 306.857L134.411 316.869L128.92 305.975H128.856C122.39 305.675 116.07 307.946 111.285 312.289C106.5 316.632 103.643 322.692 103.341 329.134C103.04 335.577 105.319 341.876 109.677 346.644C114.035 351.412 120.116 354.26 126.581 354.561L126.545 354.553Z" fill="#57B793"/>
<path id="Vector_18" d="M67.3158 315.277C71.0932 315.461 74.8617 314.767 78.3238 313.25C81.7858 311.733 84.8468 309.435 87.265 306.538C89.6832 303.64 91.3924 300.222 92.2578 296.553C93.1232 292.884 93.1211 289.065 92.2515 285.398C91.382 281.73 89.6689 278.314 87.2474 275.419C84.826 272.524 81.7624 270.229 78.2986 268.716C74.8349 267.203 71.0656 266.514 67.2884 266.701C63.5112 266.889 59.8295 267.949 56.5339 269.797L60.8124 281.572L51.9772 273.066C49.6154 275.208 47.7005 277.793 46.3423 280.673C44.9841 283.553 44.2092 286.672 44.0619 289.851C43.9487 292.101 44.1576 294.355 44.6823 296.545C45.8952 301.697 48.7616 306.313 52.8465 309.694C56.9313 313.075 62.0115 315.035 67.3158 315.277V315.277Z" fill="#57B793"/>
<path id="Vector_19" opacity="0.1" d="M74.2685 243.682C79.9019 244.3 85.3785 246.041 91.0262 246.39C96.6738 246.738 102.885 245.395 106.457 241.017C108.383 238.658 109.345 235.673 110.971 233.101C112.512 230.704 114.624 228.724 117.118 227.338C118.672 230.419 119.55 233.795 119.694 237.24C119.838 240.686 119.245 244.122 117.955 247.322C116.664 250.522 114.706 253.411 112.209 255.799C109.712 258.187 106.735 260.018 103.473 261.171C100.212 262.325 96.7421 262.773 93.2935 262.488C89.8449 262.203 86.4967 261.19 83.4711 259.516C80.4454 257.843 77.8115 255.547 75.7442 252.781C73.6769 250.016 72.2234 246.844 71.4803 243.476C72.4287 243.519 73.3557 243.583 74.2685 243.682Z" fill="black"/>
<path id="Vector_20" opacity="0.1" d="M67.3158 315.277C71.5205 315.47 75.7038 314.577 79.4599 312.684C83.2159 310.791 86.4171 307.963 88.7527 304.473C91.0884 300.983 92.4791 296.952 92.79 292.768C93.1008 288.585 92.3213 284.393 90.5269 280.599C88.5897 281.897 86.9235 283.557 85.6209 285.488C83.8809 288.103 82.8327 291.123 80.7861 293.525C76.9853 297.974 70.4962 299.43 64.6061 299.167C58.7159 298.905 53.0326 297.227 47.171 296.695C46.3581 296.623 45.5309 296.567 44.7108 296.545C45.9223 301.692 48.7845 306.306 52.8637 309.686C56.9428 313.066 62.0165 315.029 67.3158 315.277V315.277Z" fill="black"/>
<path id="Vector_21" opacity="0.1" d="M126.545 354.553C130.709 354.748 134.853 353.877 138.583 352.022C142.312 350.167 145.503 347.391 147.85 343.958C150.197 340.525 151.622 336.551 151.989 332.413C152.357 328.275 151.654 324.113 149.949 320.323C147.94 321.653 146.192 323.339 144.793 325.297C142.896 327.962 141.713 331.032 139.495 333.491C135.38 338.06 128.463 339.673 122.224 339.524C116.184 339.396 110.365 337.918 104.361 337.456C105.847 342.232 108.775 346.436 112.744 349.495C116.714 352.555 121.533 354.321 126.545 354.553V354.553Z" fill="black"/>
<path id="Vector_22" opacity="0.1" d="M114.501 401.753C116.954 406.517 120.918 410.341 125.775 412.629C130.633 414.918 136.114 415.544 141.365 414.41C146.617 413.275 151.345 410.444 154.816 406.357C158.287 402.269 160.306 397.153 160.56 391.804C160.73 388.442 160.188 385.081 158.97 381.941C156.962 383.255 155.16 384.857 153.621 386.695C151.304 389.537 149.771 392.707 147.089 395.336C142.098 400.211 134.047 402.229 126.88 402.442C122.744 402.456 118.61 402.226 114.501 401.753V401.753Z" fill="black"/>
</g>
<g id="man">
<path id="Vector_23" d="M412.98 94.9133C412.459 99.5324 408.922 103.256 407.61 107.705C405.642 114.42 409.036 121.633 413.714 126.891C417.484 131.07 422.049 134.461 427.143 136.869C432.238 139.277 437.761 140.653 443.393 140.919C445.048 141.061 446.714 140.88 448.299 140.386C449.711 139.814 450.982 138.946 452.029 137.842C455.537 134.324 457.427 129.457 458.176 124.546C458.924 119.636 458.639 114.64 458.347 109.687C458.346 108.662 458.158 107.646 457.79 106.688C457.313 105.778 456.656 104.973 455.858 104.322C453.329 102.006 450.541 99.9862 447.55 98.303C446.267 97.5924 444.891 96.8818 444.071 95.6524C443.508 94.6734 443.142 93.5944 442.994 92.4759L442.074 87.8142C441.911 86.4701 441.451 85.1788 440.726 84.0337C439.107 81.8592 436.006 81.5608 433.289 81.4542L423.305 81.0633C420.203 80.9425 416.125 80.0542 413.094 80.6654C410.242 81.2268 411.204 83.8276 411.718 86.1869C412.46 89.0404 412.884 91.967 412.98 94.9133V94.9133Z" fill="#FFC0C6"/>
<path id="Vector_24" opacity="0.1" d="M412.98 94.9133C412.459 99.5324 408.922 103.256 407.61 107.705C405.642 114.42 409.036 121.633 413.714 126.891C417.484 131.07 422.049 134.461 427.143 136.869C432.238 139.277 437.761 140.653 443.393 140.919C445.048 141.061 446.714 140.88 448.299 140.386C449.711 139.814 450.982 138.946 452.029 137.842C455.537 134.324 457.427 129.457 458.176 124.546C458.924 119.636 458.639 114.64 458.347 109.687C458.346 108.662 458.158 107.646 457.79 106.688C457.313 105.778 456.656 104.973 455.858 104.322C453.329 102.006 450.541 99.9862 447.55 98.303C446.267 97.5924 444.891 96.8818 444.071 95.6524C443.508 94.6734 443.142 93.5944 442.994 92.4759L442.074 87.8142C441.911 86.4701 441.451 85.1788 440.726 84.0337C439.107 81.8592 436.006 81.5608 433.289 81.4542L423.305 81.0633C420.203 80.9425 416.125 80.0542 413.094 80.6654C410.242 81.2268 411.204 83.8276 411.718 86.1869C412.46 89.0404 412.884 91.967 412.98 94.9133V94.9133Z" fill="black"/>
<path id="Vector_25" d="M476.381 302.955L472.145 349.231C471.04 361.368 469.913 373.555 467.745 385.536C467.032 389.665 466.119 393.773 465.078 397.844C462.183 409.15 457.983 420.201 456.628 431.791C456.585 432.125 456.55 432.501 456.514 432.807C456.236 435.365 455.993 437.952 455.088 440.34C454.375 442.109 453.369 443.722 452.635 445.47C451.209 448.967 450.98 452.832 450.802 456.62C445.662 453.728 440.033 451.801 434.194 450.935C431.342 450.516 428.24 450.224 426.35 448.093C424.211 445.776 424.461 442.23 424.817 439.117C425.939 429.453 427.056 419.793 428.169 410.138C428.539 405.984 429.255 401.867 430.308 397.83C430.693 396.487 431.156 395.165 431.627 393.844C432.276 392.024 432.932 390.205 433.424 388.336C434.107 385.334 434.578 382.287 434.836 379.219C435.984 369.498 437.367 359.798 438.58 350.084L438.644 349.572C440.462 334.848 441.846 320.053 441.446 305.222C441.389 303.026 441.297 300.83 441.154 298.627C440.954 295.437 440.662 293.745 443.293 291.749C446.224 289.546 450.082 288.004 453.433 286.561C455.238 285.779 475.104 278.744 475.539 280.293C476.462 283.584 476.941 286.982 476.965 290.398C477.006 294.592 476.81 298.784 476.381 302.955V302.955Z" fill="#605D82"/>
<path id="Vector_26" opacity="0.1" d="M467.745 385.537C467.032 389.665 466.119 393.773 465.078 397.845C462.183 409.151 457.983 420.201 456.628 431.791C456.585 432.125 456.55 432.502 456.514 432.807C447.657 420.201 440.199 406.642 431.556 393.901C432.205 392.081 432.861 390.262 433.353 388.393C434.062 385.374 434.558 382.308 434.836 379.219C435.984 369.498 437.368 359.798 438.58 350.084L438.644 349.572C439.144 351.633 439.861 353.637 440.783 355.548C446.588 367.302 460.379 373.243 467.125 384.492C467.348 384.843 467.555 385.191 467.745 385.537Z" fill="black"/>
<path id="Vector_27" d="M395.88 282.198C396.172 291.621 397.684 300.965 399.196 310.275L402.312 329.461C404.016 339.979 405.799 350.702 410.791 360.118C414.527 367.167 419.904 373.179 424.774 379.496C436.74 395.03 445.732 412.633 457.077 428.622C460.379 433.269 465.093 438.3 470.719 437.327C474.413 436.694 477.094 433.624 479.989 431.265C483.412 428.479 487.534 426.44 490.229 422.944C492.924 419.447 493.452 413.649 489.801 411.162C488.553 410.316 487.034 409.996 485.622 409.456C479.968 407.324 476.302 401.81 473.978 396.238C471.653 390.667 470.234 384.691 467.132 379.51C460.386 368.261 446.588 362.321 440.783 350.56C437.532 343.979 437.218 336.347 436.975 329.049L436.341 310.353C436.269 308.306 436.219 306.181 437.054 304.312C439.271 299.338 445.975 298.869 451.408 298.237C457.57 297.52 463.54 295.643 469 292.708C472.131 291.024 475.183 288.878 476.844 285.751C478.37 282.908 478.577 279.561 478.755 276.335L480.638 242.446C480.802 239.532 480.945 236.512 479.925 233.783C477.336 226.919 468.637 224.673 461.285 225C447.608 225.611 434.986 231.474 422.065 235.439C418.863 236.42 415.647 237.301 412.345 237.962C409.493 238.537 405.927 238.303 403.189 239.227C398.283 240.875 398.404 251.577 397.712 256.011C396.285 264.664 395.672 273.431 395.88 282.198V282.198Z" fill="#605D82"/>
<path id="Vector_28" d="M468.865 438.762C470.07 439.977 470.462 441.754 470.776 443.431C472.519 452.738 473.426 462.182 473.486 471.65C473.408 472.533 473.583 473.42 473.992 474.208C474.334 474.675 474.794 475.043 475.326 475.274C478.813 476.93 482.856 474.62 485.765 472.083C491.149 467.386 495.706 461.076 496.012 453.948C496.091 452.115 495.884 450.26 496.205 448.448C496.675 445.762 498.251 443.424 499.635 441.079C502.002 437.082 503.915 432.834 505.34 428.416C505.867 426.753 506.224 424.663 504.912 423.505C504.452 423.141 503.927 422.869 503.364 422.702L487.605 416.875C486.236 416.37 482.841 425.061 482.307 426.014C480.987 428.337 479.675 429.652 477.03 430.192C474.384 430.732 471.118 429.95 468.594 431.294C464.315 433.56 466.447 436.339 468.865 438.762Z" fill="#535070"/>
<path id="Vector_29" d="M444.563 444.127C444.271 443.547 443.863 443.032 443.365 442.614C442.637 442.152 441.807 441.871 440.947 441.796C437.952 441.285 434.401 440.951 432.326 443.175C430.386 445.257 430.722 448.647 429.103 450.992C428.59 451.703 427.891 452.342 427.449 453.124C426.899 454.32 426.654 455.633 426.735 456.947C426.65 460.564 426.564 464.195 426.821 467.805C427.028 470.832 427.534 474.009 429.438 476.382C432.49 480.191 437.995 480.739 442.873 480.98L446.83 481.186C447.919 481.313 449.021 481.211 450.068 480.888C450.716 480.591 451.298 480.166 451.778 479.64C452.259 479.114 452.628 478.496 452.863 477.825C454.924 472.723 451.665 467.23 449.654 462.113C447.337 456.222 447.75 449.691 444.563 444.127Z" fill="#535070"/>
<path id="Vector_30" d="M411.839 68.869C411.788 68.3518 411.864 67.83 412.06 67.3483C412.638 66.3321 414.149 66.6377 415.29 66.8935C419.875 68.0447 424.71 67.0001 429.438 67.2701C434.166 67.5402 439.485 69.8923 440.434 74.5114C443.864 72.0924 446.82 69.0672 449.155 65.586C450.467 63.6317 451.608 61.3933 451.43 59.0482C451.173 55.6657 448.328 53.1359 445.725 50.9898L437.881 44.5942C436.848 43.6496 435.655 42.8943 434.358 42.3628C432.547 41.7446 430.565 42.043 428.654 42.043C422.949 42.043 416.831 39.4493 411.746 42.043C409.607 43.1303 408.017 44.9992 406.476 46.8184L399.467 55.0901C398.936 55.6173 398.549 56.2702 398.34 56.9874C398.14 57.9965 398.661 58.9914 398.846 60.0076C399.174 61.8552 398.376 63.8307 398.989 65.6073C400.009 68.5493 403.603 68.9685 405.799 70.6598C406.612 71.2852 407.896 73.4241 408.872 73.3957C410.591 73.3602 411.789 70.2334 411.839 68.869Z" fill="#3F3D56"/>
<path id="Vector_31" d="M423.733 93.2647C436.139 93.2647 446.196 83.2428 446.196 70.8801C446.196 58.5174 436.139 48.4955 423.733 48.4955C411.328 48.4955 401.271 58.5174 401.271 70.8801C401.271 83.2428 411.328 93.2647 423.733 93.2647Z" fill="#FFC0C6"/>
<path id="Vector_32" d="M428.996 119.863C428.235 117.694 426.802 115.821 424.904 114.516C423.006 113.21 420.74 112.54 418.435 112.601C417.774 112.726 417.089 112.639 416.481 112.352C416.136 112.09 415.86 111.748 415.675 111.357C414.314 108.907 413.216 106.32 412.402 103.64C412.046 102.453 411.554 101.053 410.349 100.748C409.379 100.499 408.388 101.124 407.739 101.885C407.163 102.7 406.54 103.481 405.87 104.222C403.018 106.738 398.026 104.443 395.039 106.752C394.546 107.129 394.14 107.612 393.612 107.96C393.099 108.272 392.545 108.511 391.965 108.671C386.165 110.551 380.479 112.765 374.936 115.301C376.933 127.268 378.973 139.462 383.65 150.655C385.875 155.984 388.392 161.207 390.175 166.7C394.126 178.873 394.297 191.899 394.347 204.697C394.347 213.452 394.347 222.392 391.494 230.678C390.853 232.554 390.068 234.416 389.89 236.363C389.712 238.31 390.296 240.513 391.901 241.678C392.83 242.289 393.895 242.662 395.003 242.765C399.93 243.476 404.893 242.183 409.742 241.06C422.742 238.061 436.006 236.341 449.233 234.664L471.411 231.822C473.002 231.711 474.558 231.309 476.003 230.635C480.06 228.425 480.445 222.342 477.921 218.476C476.716 216.622 475.012 215.101 473.992 213.14C472.972 211.178 472.894 208.421 474.641 207.064C478.206 204.292 477.137 199.155 477.308 194.663C477.783 182.1 477.719 169.545 477.115 157C476.934 154.399 476.891 151.79 476.987 149.184C477.237 144.763 478.335 140.436 479.433 136.137L486.172 109.701C484.41 106.93 481.037 105.168 477.85 104.372C474.662 103.576 471.332 103.341 468.187 102.368C461.77 100.378 456.008 95.3326 449.283 95.8016C448.773 95.8107 448.272 95.932 447.814 96.1569C446.303 97.0168 446.538 99.1913 446.445 100.925C446.231 104.77 443.393 107.975 440.27 110.227C437.147 112.48 433.567 114.114 430.693 116.68C430.194 117.055 429.783 117.534 429.49 118.084C429.197 118.634 429.028 119.241 428.996 119.863V119.863Z" fill="#3F3D56"/>
<path id="Vector_33" d="M339.995 144.941C338.507 145.905 336.926 146.717 335.274 147.364C333.705 147.983 332.03 148.473 330.746 149.553C330.111 150.103 329.577 150.759 329.17 151.493C328.41 152.837 328.026 154.359 328.058 155.901C328.089 157.443 328.536 158.949 329.35 160.26C330.164 161.572 331.317 162.642 332.688 163.359C334.058 164.075 335.597 164.412 337.143 164.334C339.203 164.227 341.15 163.396 343.04 162.579L358.885 155.707C361.566 154.549 364.461 153.199 365.73 150.569C365.876 150.323 365.931 150.034 365.887 149.752C365.765 149.442 365.531 149.189 365.231 149.041C361.661 146.726 358.537 143.79 356.011 140.372C355.362 139.491 354.585 137.416 353.644 136.883C350.292 135.028 342.683 143.207 339.995 144.941Z" fill="#FFC0C6"/>
<path id="Vector_34" d="M509.368 139.363L515.209 146.014C516.464 147.435 517.719 148.857 518.86 150.392C521.667 154.245 523.919 158.472 525.549 162.948C526.818 166.267 527.873 169.806 527.431 173.331C527.135 175.138 526.645 176.908 525.969 178.61C524.899 181.884 523.571 185.068 521.997 188.133C520.683 190.458 519.198 192.684 517.555 194.791C513.031 200.764 508.081 206.405 502.744 211.669C500.747 213.637 499.891 216.828 499.043 219.485C497.438 224.396 493.623 228.226 489.937 231.85C488.751 233.099 487.439 234.223 486.022 235.204C483.899 236.569 481.416 237.272 478.891 237.223C477.789 237.229 476.698 237.004 475.689 236.562C473.165 235.368 471.881 232.461 471.617 229.69C471.384 227.172 471.807 224.636 472.844 222.328C476.195 214.93 484.802 211.725 490.885 206.325C494.451 203.162 497.182 199.183 499.877 195.253C501.703 192.797 503.228 190.132 504.42 187.316C505.774 183.699 505.247 179.421 506.438 175.754C506.937 174.197 507.864 172.798 508.37 171.256C508.876 169.713 509.048 167.887 508.099 166.558C507.389 165.709 506.48 165.045 505.454 164.625C501.567 162.664 497.217 160.134 496.476 155.849C496.179 153.476 496.801 151.08 498.216 149.148C499.623 147.241 501.269 145.522 503.115 144.032C504.805 142.511 507.664 140.827 509.368 139.363Z" fill="#FFC0C6"/>
<path id="Vector_35" d="M336.244 154.222C335.217 152.147 333.927 150.029 331.844 148.999C330.831 148.563 329.739 148.338 328.635 148.338C327.532 148.338 326.44 148.563 325.426 148.999C323.409 149.868 321.518 151.006 319.807 152.381L314.773 156.084C313.632 156.83 312.622 157.759 311.785 158.834C310.987 160.137 310.458 161.587 310.23 163.098C309.517 166.558 308.94 170.118 309.439 173.622C310.238 179.307 313.66 184.224 317.426 188.545C319.779 191.231 322.688 193.946 326.268 194.066C327.815 194.116 329.534 193.505 330.176 192.105C330.399 191.549 330.518 190.956 330.525 190.357C330.91 184.047 328.643 177.886 326.004 172.137C325.291 170.573 324.521 168.953 324.578 167.24C324.556 166.95 324.631 166.66 324.792 166.416C325.018 166.18 325.321 166.031 325.648 165.997C329.263 165.286 335.495 168.086 338.027 164.085C339.667 161.442 337.414 156.574 336.244 154.222Z" fill="#FFC0C6"/>
<path id="Vector_36" d="M410.655 61.8268C410.61 61.309 410.689 60.7881 410.883 60.306C411.461 59.2827 412.973 59.5954 414.114 59.8512C418.699 61.0024 423.534 59.9578 428.261 60.2279C432.989 60.4979 438.302 62.8501 439.257 67.4691C442.684 65.0462 445.639 62.0217 447.978 58.5437C449.29 56.5824 450.431 54.3439 450.253 51.9989C449.996 48.6163 447.144 46.0865 444.548 43.9475L436.704 37.5519C435.674 36.6075 434.483 35.8521 433.189 35.3206C431.37 34.7023 429.395 35.0008 427.484 35.0008C421.779 35.0008 415.661 32.407 410.577 35.0008C408.437 36.088 406.847 37.957 405.307 39.7762L398.29 48.0478C397.763 48.5763 397.378 49.2289 397.171 49.9452C396.971 50.9542 397.492 51.9491 397.677 52.9653C398.005 54.8129 397.206 56.7885 397.82 58.5579C398.839 61.507 402.433 61.9263 404.63 63.6175C405.442 64.2429 406.726 66.3819 407.703 66.3534C409.393 66.3179 410.591 63.1912 410.655 61.8268Z" fill="#3F3D56"/>
<path id="Vector_37" d="M362.949 123.168C362.044 123.753 361.248 124.492 360.596 125.349C359.776 126.593 359.605 128.192 358.899 129.471C357.387 132.271 353.843 133.273 351.64 135.568C351.283 135.882 351.033 136.299 350.927 136.762C350.913 137.387 351.123 137.996 351.519 138.482L362.172 155.167C365.738 155.48 369.118 153.263 372.669 153.561C373.988 153.668 375.35 154.122 376.619 153.732C377.527 153.329 378.378 152.81 379.151 152.189C381.29 150.853 384.085 150.697 385.861 148.942C387.637 147.187 387.786 144.607 387.765 142.212C387.797 140.134 387.584 138.059 387.13 136.03C385.562 129.634 380.648 124.703 377.568 119.032C376.063 116.268 375.25 114.654 372.077 116.552C368.904 118.449 365.952 120.979 362.949 123.168Z" fill="#3F3D56"/>
<path id="Vector_38" d="M492.311 114.733C494.313 116.028 496.119 117.603 497.674 119.409C499.292 121.491 500.212 124.049 501.774 126.181C503.336 128.313 505.339 129.848 507.051 131.752C509.654 134.637 511.415 138.148 513.141 141.637C508.916 147.114 504.313 152.291 499.364 157.128C498.812 157.775 498.084 158.249 497.267 158.493C496.714 158.552 496.154 158.473 495.639 158.264C495.124 158.054 494.669 157.72 494.315 157.292C493.545 156.496 493.003 155.501 492.268 154.67C490.538 152.891 488.232 151.781 485.758 151.536C483.305 151.298 480.836 151.262 478.377 151.429C477.838 151.493 477.291 151.402 476.801 151.166C476.437 150.917 476.143 150.58 475.946 150.186C473.093 145.296 473.985 139.157 475.005 133.571L477.336 120.78C477.677 118.338 478.331 115.949 479.283 113.674C480.167 111.791 482.135 108.593 484.574 109.161C487.013 109.73 490.25 113.255 492.311 114.733Z" fill="#3F3D56"/>
</g>
<g id="boxes">
<path id="Vector_39" d="M307.499 462.788L213.371 481.975L211.232 481.762L128.513 473.448V368.986L229.772 351.931L303.221 360.459L303.242 360.921L303.249 361.148L307.499 462.788Z" fill="#74BFDA"/>
<path id="Vector_40" opacity="0.1" d="M307.499 462.788L213.371 481.975L211.232 481.762V374.671L303.242 360.921L307.499 462.788Z" fill="black"/>
<path id="Vector_41" opacity="0.05" d="M303.249 361.148L303.221 361.169L211.232 374.671L128.513 368.986L229.772 351.931L303.221 360.459L303.242 360.921L303.249 361.148Z" fill="black"/>
<path id="Vector_42" d="M410.898 467.052L316.769 486.239L314.63 486.026L231.912 477.711V373.25L333.171 356.195L406.619 364.722L406.64 365.184L406.648 365.412L410.898 467.052Z" fill="#3F3D56"/>
<path id="Vector_43" opacity="0.1" d="M410.898 467.052L316.77 486.239L314.63 486.026V378.935L406.64 365.184L410.898 467.052Z" fill="black"/>
<path id="Vector_44" opacity="0.05" d="M406.648 365.412L406.619 365.433L314.63 378.935L231.912 373.25L333.171 356.195L406.619 364.722L406.641 365.184L406.648 365.412Z" fill="black"/>
<path id="Vector_45" d="M346.006 364.722L251.878 383.909L249.739 383.696L167.02 375.382V270.92L268.279 253.865L341.728 262.393L341.749 262.855L341.756 263.082L346.006 364.722Z" fill="#3F3D56"/>
<path id="Vector_46" opacity="0.1" d="M346.006 364.722L251.878 383.909L249.739 383.696V276.605L341.749 262.855L346.006 364.722Z" fill="black"/>
<path id="Vector_47" opacity="0.05" d="M341.756 263.082L341.728 263.103L249.739 276.605L167.02 270.92L268.279 253.865L341.728 262.393L341.749 262.855L341.756 263.082Z" fill="black"/>
<path id="Vector_48" d="M399.488 369.1L350.363 379.12L349.244 379.006L306.073 374.664V320.145L358.92 311.241L397.256 315.697L397.27 315.938V316.052L399.488 369.1Z" fill="#3F3D56"/>
<path id="Vector_49" opacity="0.1" d="M399.488 369.1L350.363 379.12L349.244 379.006V323.115L397.27 315.938L399.488 369.1Z" fill="black"/>
<path id="Vector_50" opacity="0.05" d="M397.27 316.052L397.256 316.066L349.244 323.115L306.073 320.145L358.92 311.241L397.256 315.697L397.27 315.938V316.052Z" fill="black"/>
<path id="Vector_51" d="M267.566 263.217L218.441 273.23L217.322 273.123L174.151 268.781V214.262L226.998 205.358L265.334 209.814L265.348 210.055V210.169L267.566 263.217Z" fill="#3F3D56"/>
<path id="Vector_52" opacity="0.1" d="M267.566 263.217L218.441 273.23L217.322 273.123V217.233L265.348 210.055L267.566 263.217Z" fill="black"/>
<path id="Vector_53" opacity="0.05" d="M265.348 210.169L265.334 210.183L217.322 217.233L174.151 214.262L226.998 205.358L265.334 209.814L265.348 210.055V210.169Z" fill="black"/>
<path id="Vector_54" d="M353.85 261.085L304.725 271.098L303.606 270.991L260.435 266.649V212.13L313.282 203.226L351.618 207.682L351.633 207.924V208.037L353.85 261.085Z" fill="#74BFDA"/>
<path id="Vector_55" opacity="0.1" d="M353.85 261.085L304.725 271.098L303.606 270.991V215.101L351.633 207.924L353.85 261.085Z" fill="black"/>
<path id="Vector_56" opacity="0.05" d="M351.633 208.037L351.618 208.052L303.606 215.101L260.435 212.13L313.282 203.226L351.618 207.682L351.633 207.924V208.037Z" fill="black"/>
<path id="Vector_57" d="M379.522 206.367L330.397 216.38L329.277 216.273L286.107 211.932V157.413L338.954 148.508L377.29 152.964L377.304 153.206V153.319L379.522 206.367Z" fill="#3F3D56"/>
<path id="Vector_58" opacity="0.1" d="M379.522 206.367L330.397 216.38L329.277 216.273V160.383L377.304 153.206L379.522 206.367Z" fill="black"/>
<path id="Vector_59" opacity="0.05" d="M377.304 153.319L377.29 153.334L329.277 160.383L286.107 157.413L338.954 148.508L377.29 152.964L377.304 153.206V153.319Z" fill="black"/>
<path id="Vector_60" d="M288.959 208.499L239.834 218.512L238.714 218.405L195.544 214.063V159.544L248.391 150.64L286.727 155.096L286.741 155.338V155.451L288.959 208.499Z" fill="#74BFDA"/>
<path id="Vector_61" opacity="0.1" d="M288.959 208.499L239.834 218.512L238.715 218.405V162.515L286.741 155.337L288.959 208.499Z" fill="black"/>
<path id="Vector_62" opacity="0.05" d="M286.741 155.451L286.727 155.465L238.714 162.515L195.544 159.544L248.391 150.64L286.727 155.096L286.741 155.338V155.451Z" fill="black"/>
<path id="Vector_63" d="M314.63 154.492L265.505 164.512L264.386 164.398L221.215 160.056V105.537L274.062 96.6331L312.398 101.089L312.413 101.33V101.444L314.63 154.492Z" fill="#3F3D56"/>
<path id="Vector_64" opacity="0.1" d="M314.63 154.492L265.505 164.512L264.386 164.398V108.508L312.413 101.33L314.63 154.492Z" fill="black"/>
<path id="Vector_65" opacity="0.05" d="M312.412 101.444L312.398 101.458L264.386 108.508L221.215 105.537L274.062 96.6331L312.398 101.089L312.412 101.33V101.444Z" fill="black"/>
</g>
</g>
<defs>
<clipPath id="clip0">
<rect width="677" height="491" fill="white"/>
</clipPath>
</defs>
</svg>
