<svg width="1074" height="739" viewBox="0 0 1074 739" fill="none" xmlns="http://www.w3.org/2000/svg">
<g id="discount_svg" clip-path="url(#clip0)">
<g id="backgroundsvg">
<path id="Vector" opacity="0.1" d="M404.83 77H335.17C332.315 77 330 79.3147 330 82.17V101.83C330 104.685 332.315 107 335.17 107H404.83C407.685 107 410 104.685 410 101.83V82.17C410 79.3147 407.685 77 404.83 77Z" fill="#74BFDA"/>
<path id="Vector_2" opacity="0.1" d="M642.83 50H573.17C570.315 50 568 52.3147 568 55.17V74.83C568 77.6853 570.315 80 573.17 80H642.83C645.685 80 648 77.6853 648 74.83V55.17C648 52.3147 645.685 50 642.83 50Z" fill="#74BFDA"/>
<path id="Vector_3" opacity="0.1" d="M598.83 355H529.17C526.315 355 524 357.315 524 360.17V379.83C524 382.685 526.315 385 529.17 385H598.83C601.685 385 604 382.685 604 379.83V360.17C604 357.315 601.685 355 598.83 355Z" fill="#74BFDA"/>
<path id="Vector_4" opacity="0.1" d="M634.83 388H565.17C562.315 388 560 390.315 560 393.17V412.83C560 415.685 562.315 418 565.17 418H634.83C637.685 418 640 415.685 640 412.83V393.17C640 390.315 637.685 388 634.83 388Z" fill="#74BFDA"/>
<path id="Vector_5" opacity="0.1" d="M848.83 373H779.17C776.315 373 774 375.315 774 378.17V397.83C774 400.685 776.315 403 779.17 403H848.83C851.685 403 854 400.685 854 397.83V378.17C854 375.315 851.685 373 848.83 373Z" fill="#74BFDA"/>
<path id="Vector_6" opacity="0.1" d="M197.83 397H128.17C125.315 397 123 399.315 123 402.17V421.83C123 424.685 125.315 427 128.17 427H197.83C200.685 427 203 424.685 203 421.83V402.17C203 399.315 200.685 397 197.83 397Z" fill="#74BFDA"/>
<path id="Vector_7" opacity="0.1" d="M573.83 421H504.17C501.315 421 499 423.315 499 426.17V445.83C499 448.685 501.315 451 504.17 451H573.83C576.685 451 579 448.685 579 445.83V426.17C579 423.315 576.685 421 573.83 421Z" fill="#74BFDA"/>
<path id="Vector_8" opacity="0.1" d="M537 739C833.577 739 1074 717.062 1074 690C1074 662.938 833.577 641 537 641C240.423 641 0 662.938 0 690C0 717.062 240.423 739 537 739Z" fill="#74BFDA"/>
<path id="Vector_9" opacity="0.1" d="M326.83 258H257.17C254.315 258 252 260.315 252 263.17V282.83C252 285.685 254.315 288 257.17 288H326.83C329.685 288 332 285.685 332 282.83V263.17C332 260.315 329.685 258 326.83 258Z" fill="#74BFDA"/>
<path id="Vector_10" opacity="0.1" d="M362.83 291H293.17C290.315 291 288 293.315 288 296.17V315.83C288 318.685 290.315 321 293.17 321H362.83C365.685 321 368 318.685 368 315.83V296.17C368 293.315 365.685 291 362.83 291Z" fill="#74BFDA"/>
<path id="Vector_11" opacity="0.1" d="M677.83 260H608.17C605.315 260 603 262.315 603 265.17V284.83C603 287.685 605.315 290 608.17 290H677.83C680.685 290 683 287.685 683 284.83V265.17C683 262.315 680.685 260 677.83 260Z" fill="#74BFDA"/>
<path id="Vector_12" opacity="0.1" d="M713.83 293H644.17C641.315 293 639 295.315 639 298.17V317.83C639 320.685 641.315 323 644.17 323H713.83C716.685 323 719 320.685 719 317.83V298.17C719 295.315 716.685 293 713.83 293Z" fill="#74BFDA"/>
<path id="Vector_13" opacity="0.1" d="M301.83 324H232.17C229.315 324 227 326.315 227 329.17V348.83C227 351.685 229.315 354 232.17 354H301.83C304.685 354 307 351.685 307 348.83V329.17C307 326.315 304.685 324 301.83 324Z" fill="#74BFDA"/>
<path id="Vector_14" opacity="0.1" d="M381.83 441H312.17C309.315 441 307 443.315 307 446.17V465.83C307 468.685 309.315 471 312.17 471H381.83C384.685 471 387 468.685 387 465.83V446.17C387 443.315 384.685 441 381.83 441Z" fill="#74BFDA"/>
<path id="Vector_15" opacity="0.1" d="M417.83 474H348.17C345.315 474 343 476.315 343 479.17V498.83C343 501.685 345.315 504 348.17 504H417.83C420.685 504 423 501.685 423 498.83V479.17C423 476.315 420.685 474 417.83 474Z" fill="#74BFDA"/>
<path id="Vector_16" opacity="0.1" d="M356.83 507H287.17C284.315 507 282 509.315 282 512.17V531.83C282 534.685 284.315 537 287.17 537H356.83C359.685 537 362 534.685 362 531.83V512.17C362 509.315 359.685 507 356.83 507Z" fill="#74BFDA"/>
<path id="Vector_17" opacity="0.1" d="M703.83 525H634.17C631.315 525 629 527.315 629 530.17V549.83C629 552.685 631.315 555 634.17 555H703.83C706.685 555 709 552.685 709 549.83V530.17C709 527.315 706.685 525 703.83 525Z" fill="#74BFDA"/>
<path id="Vector_18" opacity="0.1" d="M642.83 558H573.17C570.315 558 568 560.315 568 563.17V582.83C568 585.685 570.315 588 573.17 588H642.83C645.685 588 648 585.685 648 582.83V563.17C648 560.315 645.685 558 642.83 558Z" fill="#74BFDA"/>
<g id="Group" opacity="0.1">
<path id="Vector_19" opacity="0.1" d="M945.26 663.39C945.26 663.39 930.78 590.03 960.6 539.75C973.24 518.742 978.725 494.2 976.23 469.81C974.944 458.24 972.601 446.812 969.23 435.67" stroke="#535461" stroke-width="2" stroke-miterlimit="10"/>
<path id="Vector_20" opacity="0.1" d="M987.85 403.87C987.05 412.62 968.85 436.55 968.85 436.55C968.85 436.55 955.33 409.71 956.14 400.95C956.606 396.811 958.676 393.019 961.905 390.388C965.135 387.757 969.267 386.496 973.415 386.877C977.564 387.258 981.397 389.25 984.094 392.424C986.791 395.599 988.136 399.705 987.84 403.86L987.85 403.87Z" fill="#74BFDA"/>
<path id="Vector_21" opacity="0.1" d="M1009.6 454.77C1004.17 461.68 975.9 471.89 975.9 471.89C975.9 471.89 979.14 442.01 984.57 435.1C985.824 433.356 987.419 431.884 989.258 430.773C991.096 429.661 993.14 428.933 995.268 428.633C997.395 428.333 999.561 428.466 1001.64 429.025C1003.71 429.584 1005.65 430.557 1007.34 431.885C1009.03 433.213 1010.43 434.87 1011.46 436.755C1012.49 438.639 1013.13 440.713 1013.34 442.851C1013.55 444.989 1013.32 447.147 1012.67 449.196C1012.03 451.244 1010.97 453.14 1009.57 454.77H1009.6Z" fill="#74BFDA"/>
<path id="Vector_22" opacity="0.1" d="M1000.84 537.5C992.66 540.72 963.11 535.26 963.11 535.26C963.11 535.26 980.99 511.1 989.17 507.88C993.082 506.41 997.414 506.536 1001.23 508.233C1005.05 509.929 1008.05 513.058 1009.58 516.946C1011.11 520.834 1011.06 525.168 1009.42 529.014C1007.79 532.859 1004.7 535.907 1000.84 537.5V537.5Z" fill="#74BFDA"/>
<path id="Vector_23" opacity="0.1" d="M980.11 598.65C972.59 603.21 942.54 602.82 942.54 602.82C942.54 602.82 956.08 575.99 963.6 571.43C965.388 570.305 967.382 569.546 969.466 569.2C971.551 568.853 973.683 568.924 975.739 569.41C977.795 569.895 979.734 570.785 981.443 572.028C983.152 573.271 984.596 574.841 985.692 576.647C986.788 578.454 987.513 580.46 987.825 582.55C988.137 584.64 988.031 586.77 987.511 588.818C986.992 590.866 986.07 592.79 984.799 594.478C983.528 596.166 981.934 597.584 980.11 598.65V598.65Z" fill="#74BFDA"/>
<path id="Vector_24" opacity="0.1" d="M942.46 470.5C948.18 477.18 976.85 486.18 976.85 486.18C976.85 486.18 972.35 456.46 966.64 449.79C965.291 448.168 963.632 446.83 961.761 445.855C959.891 444.879 957.845 444.286 955.742 444.108C953.64 443.93 951.523 444.172 949.515 444.82C947.507 445.467 945.648 446.508 944.045 447.88C942.443 449.253 941.129 450.93 940.181 452.815C939.232 454.699 938.668 456.754 938.52 458.858C938.373 460.963 938.645 463.076 939.321 465.075C939.998 467.073 941.065 468.917 942.46 470.5V470.5Z" fill="#74BFDA"/>
<path id="Vector_25" opacity="0.1" d="M919.12 542.32C926.57 546.98 956.63 546.99 956.63 546.99C956.63 546.99 943.45 519.99 935.99 515.32C934.217 514.178 932.235 513.4 930.158 513.031C928.082 512.662 925.953 512.709 923.895 513.169C921.837 513.629 919.891 514.494 918.17 515.713C916.449 516.932 914.987 518.481 913.87 520.269C912.752 522.058 912.001 524.05 911.66 526.132C911.319 528.213 911.395 530.341 911.884 532.392C912.372 534.444 913.264 536.378 914.506 538.082C915.748 539.787 917.316 541.227 919.12 542.32V542.32Z" fill="#74BFDA"/>
<path id="Vector_26" opacity="0.1" d="M906 615.21C912.56 621.06 942.18 626.16 942.18 626.16C942.18 626.16 933.75 597.31 927.18 591.46C925.635 589.986 923.809 588.839 921.811 588.085C919.812 587.332 917.683 586.988 915.55 587.074C913.416 587.16 911.322 587.675 909.391 588.588C907.46 589.5 905.733 590.791 904.312 592.385C902.89 593.979 901.804 595.842 901.118 597.864C900.432 599.886 900.159 602.026 900.317 604.156C900.474 606.285 901.058 608.361 902.035 610.26C903.011 612.159 904.36 613.843 906 615.21V615.21Z" fill="#74BFDA"/>
</g>
<g id="Group_2" opacity="0.1">
<path id="Vector_27" opacity="0.1" d="M819.63 647.29C819.63 647.29 811.86 607.9 827.86 580.9C834.647 569.618 837.591 556.438 836.25 543.34C835.566 537.129 834.314 530.993 832.51 525.01" stroke="#535461" stroke-width="2" stroke-miterlimit="10"/>
<path id="Vector_28" opacity="0.1" d="M842.5 507.93C842.07 512.63 832.3 525.48 832.3 525.48C832.3 525.48 825.04 511.07 825.47 506.37C825.795 504.212 826.932 502.26 828.649 500.914C830.366 499.567 832.533 498.928 834.706 499.128C836.879 499.327 838.894 500.35 840.337 501.986C841.78 503.623 842.543 505.749 842.47 507.93H842.5Z" fill="#74BFDA"/>
<path id="Vector_29" opacity="0.1" d="M854.17 535.26C851.25 538.97 836.07 544.45 836.07 544.45C836.07 544.45 837.81 528.45 840.73 524.7C842.155 522.994 844.189 521.91 846.4 521.678C848.611 521.446 850.826 522.085 852.574 523.459C854.322 524.832 855.467 526.833 855.765 529.036C856.062 531.239 855.491 533.471 854.17 535.26V535.26Z" fill="#74BFDA"/>
<path id="Vector_30" opacity="0.1" d="M849.47 579.7C845.08 581.43 829.21 578.5 829.21 578.5C829.21 578.5 838.81 565.5 843.21 563.8C845.301 563.05 847.601 563.144 849.625 564.06C851.648 564.977 853.235 566.645 854.05 568.712C854.865 570.778 854.843 573.08 853.99 575.131C853.137 577.182 851.52 578.821 849.48 579.7H849.47Z" fill="#74BFDA"/>
<path id="Vector_31" opacity="0.1" d="M838.34 612.5C834.34 614.95 818.17 614.74 818.17 614.74C818.17 614.74 825.44 600.33 829.48 597.88C830.441 597.266 831.514 596.851 832.638 596.658C833.761 596.465 834.912 596.499 836.022 596.757C837.132 597.015 838.18 597.493 839.103 598.162C840.026 598.831 840.805 599.678 841.396 600.653C841.987 601.628 842.377 602.711 842.543 603.839C842.709 604.967 842.648 606.116 842.363 607.22C842.078 608.324 841.576 609.36 840.885 610.266C840.194 611.173 839.329 611.933 838.34 612.5V612.5Z" fill="#74BFDA"/>
<path id="Vector_32" opacity="0.1" d="M818.12 543.72C821.19 547.31 836.59 552.14 836.59 552.14C836.59 552.14 834.18 536.14 831.11 532.6C829.635 530.876 827.536 529.809 825.275 529.632C823.013 529.456 820.774 530.185 819.05 531.66C817.326 533.135 816.259 535.234 816.082 537.495C815.906 539.757 816.635 541.996 818.11 543.72H818.12Z" fill="#74BFDA"/>
<path id="Vector_33" opacity="0.1" d="M805.59 582.27C809.59 584.77 825.73 584.78 825.73 584.78C825.73 584.78 818.65 570.28 814.65 567.78C812.728 566.622 810.428 566.266 808.246 566.788C806.064 567.311 804.175 568.67 802.986 570.573C801.797 572.475 801.404 574.769 801.891 576.959C802.378 579.15 803.707 581.061 805.59 582.28V582.27Z" fill="#74BFDA"/>
<path id="Vector_34" opacity="0.1" d="M798.56 621.41C802.08 624.55 817.99 627.29 817.99 627.29C817.99 627.29 813.47 611.8 809.99 608.66C808.291 607.197 806.086 606.46 803.849 606.607C801.612 606.755 799.522 607.775 798.03 609.448C796.538 611.121 795.762 613.313 795.871 615.553C795.979 617.792 796.963 619.899 798.61 621.42L798.56 621.41Z" fill="#74BFDA"/>
</g>
<g id="Group_3" opacity="0.1">
<path id="Vector_35" opacity="0.1" d="M186.63 653.29C186.63 653.29 178.86 613.9 194.86 586.9C201.647 575.618 204.591 562.438 203.25 549.34C202.566 543.129 201.314 536.993 199.51 531.01" stroke="#535461" stroke-width="2" stroke-miterlimit="10"/>
<path id="Vector_36" opacity="0.1" d="M209.5 513.93C209.07 518.63 199.3 531.48 199.3 531.48C199.3 531.48 192.04 517.07 192.47 512.37C192.795 510.212 193.932 508.26 195.649 506.914C197.366 505.567 199.533 504.928 201.706 505.128C203.879 505.327 205.894 506.35 207.337 507.986C208.78 509.623 209.544 511.749 209.47 513.93H209.5Z" fill="#74BFDA"/>
<path id="Vector_37" opacity="0.1" d="M221.17 541.26C218.25 544.97 203.07 550.45 203.07 550.45C203.07 550.45 204.81 534.45 207.73 530.7C209.155 528.994 211.189 527.91 213.4 527.678C215.611 527.446 217.826 528.085 219.574 529.459C221.322 530.832 222.467 532.833 222.765 535.036C223.062 537.239 222.491 539.471 221.17 541.26Z" fill="#74BFDA"/>
<path id="Vector_38" opacity="0.1" d="M216.47 585.7C212.08 587.43 196.21 584.5 196.21 584.5C196.21 584.5 205.81 571.5 210.21 569.8C212.301 569.05 214.601 569.144 216.625 570.06C218.648 570.977 220.235 572.645 221.05 574.712C221.865 576.778 221.843 579.08 220.99 581.131C220.137 583.182 218.52 584.821 216.48 585.7H216.47Z" fill="#74BFDA"/>
<path id="Vector_39" opacity="0.1" d="M205.34 618.5C201.34 620.95 185.17 620.74 185.17 620.74C185.17 620.74 192.44 606.33 196.48 603.88C197.441 603.266 198.514 602.851 199.638 602.658C200.761 602.465 201.912 602.499 203.022 602.757C204.132 603.015 205.18 603.493 206.103 604.162C207.026 604.831 207.805 605.678 208.396 606.653C208.987 607.628 209.377 608.711 209.543 609.839C209.709 610.967 209.648 612.116 209.363 613.22C209.078 614.324 208.576 615.36 207.885 616.266C207.194 617.173 206.329 617.933 205.34 618.5V618.5Z" fill="#74BFDA"/>
<path id="Vector_40" opacity="0.1" d="M185.12 549.72C188.19 553.31 203.59 558.14 203.59 558.14C203.59 558.14 201.18 542.14 198.11 538.6C196.635 536.876 194.536 535.809 192.275 535.632C190.013 535.456 187.774 536.185 186.05 537.66C184.326 539.135 183.259 541.234 183.082 543.495C182.906 545.757 183.635 547.996 185.11 549.72H185.12Z" fill="#74BFDA"/>
<path id="Vector_41" opacity="0.1" d="M172.59 588.27C176.59 590.77 192.73 590.78 192.73 590.78C192.73 590.78 185.65 576.28 181.65 573.78C179.728 572.622 177.428 572.266 175.246 572.788C173.064 573.311 171.175 574.67 169.986 576.573C168.797 578.475 168.404 580.769 168.891 582.959C169.378 585.15 170.707 587.061 172.59 588.28V588.27Z" fill="#74BFDA"/>
<path id="Vector_42" opacity="0.1" d="M165.56 627.41C169.08 630.55 184.99 633.29 184.99 633.29C184.99 633.29 180.47 617.8 176.99 614.66C175.291 613.197 173.086 612.46 170.849 612.607C168.612 612.755 166.522 613.775 165.03 615.448C163.538 617.121 162.762 619.313 162.871 621.553C162.979 623.792 163.963 625.899 165.61 627.42L165.56 627.41Z" fill="#74BFDA"/>
</g>
</g>
<g id="woman2">
<path id="Vector_43" d="M718.91 182.21L682.25 75.79L669.07 77.79L657.27 79.3C657.57 75.3 658.09 60.94 650.77 53.41C650.06 50.83 648.19 47.9 644.59 44.6C627.05 28.52 623.4 61.41 623.4 61.41C623.4 61.41 619.4 68.35 613.89 78.05L611 77.5L610.18 84.66C597.98 106.23 581.77 135.42 581.77 138.16C581.77 142.55 579.58 148.39 579.58 148.39C579.58 148.39 567.16 168.85 562.77 179.09C560.214 185.131 556.474 190.599 551.77 195.17C551.77 195.17 550.71 195.98 548.97 197.17C549.081 195.234 549.416 193.318 549.97 191.46C551.57 186.23 555.29 181.75 556.28 176.37C556.512 175.08 556.599 173.769 556.54 172.46C556.77 166.15 553.7 159.94 552.42 153.63C550.93 146.32 551.73 138.27 547.83 131.92C544.83 127.07 539.51 124.05 533.98 122.66C528.9 121.39 523.9 121.84 518.78 121.3C514.08 120.8 509.59 118.72 504.89 117.95C502.379 117.404 499.781 117.404 497.27 117.95C489.32 120.14 486.83 130.16 480.69 135.67C478.48 137.67 475.77 139.05 473.77 141.24C470.86 144.43 469.85 148.88 470 153.24C469.962 154.701 470.049 156.163 470.26 157.61C471.02 162.84 473.04 167.79 474.26 172.92C475.182 176.717 475.682 180.604 475.75 184.51C475.75 185.39 475.75 186.27 475.67 187.14C475.706 188.901 475.238 190.636 474.32 192.14C473.21 193.67 471.38 194.41 469.75 195.39C464.422 191.161 460.423 185.489 458.23 179.05C458.23 179.05 457.96 179.39 457.5 180.05V179.05C457.5 179.05 447.5 164.37 445.98 152.38L449.46 152.74L457.46 40.19L437.03 37.19C436.46 31.38 434.91 22.95 430.8 16.8C434.23 10.04 435.96 0.890001 420.92 -0.019999C403.32 -1.09 404.4 12.62 406.27 20.12C405.422 24.2126 405.086 28.3946 405.27 32.57L387.27 29.95L387.17 31.41H382.89L369.79 146.23L380.95 145.67L421.85 149.93C425.12 179.66 430.26 216.4 436.36 225.06C436.563 225.352 436.787 225.63 437.03 225.89V278.5C437.03 278.5 436.3 346.5 423.87 357.43C431.495 354.717 439.56 353.452 447.65 353.7C447.51 354.15 447.37 354.63 447.23 355.14C445.411 361.852 444.143 368.701 443.44 375.62C443.267 377.147 443.11 378.74 442.97 380.4C441.825 395.632 442.036 410.935 443.6 426.13C448.72 480.21 456.76 518.95 456.76 518.95L459 550.39C459 550.39 456.81 603.74 462.65 621.28C464.851 623.308 467.38 624.948 470.13 626.13C470.18 626.63 470.24 627.13 470.29 627.66C470.34 628.19 470.42 629.01 470.49 629.71C467.87 630.9 462.98 635.62 461.92 654.16C461.92 654.16 463.38 668.05 459.73 674.62C456.08 681.19 458.27 700.2 469.23 702.39C476.235 703.678 483.415 703.678 490.42 702.39C490.42 702.39 495.54 702.39 491.88 684.12L491.24 679.44C491.16 670.39 491.54 660.7 493.34 657.81C496.99 651.96 491.88 646.12 491.88 646.12C491.88 646.12 491.52 646.32 490.93 646.59C489.99 641.54 488.76 633.34 489.2 627.08C489.2 626.55 489.29 626.08 489.35 625.53C491.58 624.365 493.659 622.931 495.54 621.26V551.85C495.54 551.85 494.81 445.15 502.85 442.95C502.85 442.95 506.5 481.68 505.04 500.69C503.58 519.7 507.23 540.16 507.23 540.16L508.69 617.63C508.69 617.63 510.09 618.3 512.35 619.09L512.2 620.5C511.31 629.11 509.88 642.11 508.58 650.07C507.703 650.418 506.922 650.973 506.304 651.686C505.686 652.4 505.249 653.252 505.03 654.17C502.84 661.48 504.3 679.75 499.91 684.87C497.32 687.87 494.22 693.98 495.74 698.3C494.79 702.09 495.21 708.01 506.49 708.99C523.3 710.45 530.61 701.68 530.61 701.68C530.61 701.68 532.8 698.03 530.61 691.45C528.42 684.87 531.34 673.18 531.34 673.18C531.34 673.18 532.91 663.26 530.34 661.96C530.12 660.78 529.92 660.03 529.92 660.03C529.955 657.783 529.128 655.607 527.61 653.95C527.55 646.3 527.86 632.15 530.55 622.83C530.71 622.3 530.87 621.83 531.04 621.28C533.206 620.906 535.295 620.172 537.22 619.11C537.22 619.11 536.49 602.3 541.61 590.61C546.73 578.92 543.8 532.14 543.8 532.14C543.8 532.14 541.61 519.85 544.7 509.89C548.24 498.852 550.895 487.55 552.64 476.09L556.95 445.9C556.95 445.9 568.3 409.15 553.35 371.43C552.74 369.87 552.07 368.31 551.35 366.75C550.11 364.04 548.73 361.32 547.19 358.62C546.95 358.2 546.69 357.77 546.44 357.35C548.01 356.96 548.9 356.73 548.9 356.73C548.9 356.73 529.17 310.73 541.59 287.3C541.59 287.3 548.59 280.3 549.59 272.61C550.83 262.44 552.18 252.28 554.4 242.28L554.79 240.52C554.79 240.52 554.85 240.18 554.95 239.57C555.23 239.39 555.5 239.2 555.77 239C576.83 223.62 594.99 159.4 594.99 159.4L600.84 148.4L603.62 142.52L597.92 192.25L642.5 203.25L671 201.06L670.92 194.93L692.64 193.24L718.91 182.21ZM436.31 37.21L428.39 36.05C427 28.9 426.06 24.21 426.06 24.21C427.72 22.1579 429.189 19.9588 430.45 17.64C434.28 23.5 435.75 31.5 436.31 37.17V37.21ZM406.73 21.86C407.28 23.74 407.78 24.95 407.78 24.95L408.78 33.2L406.08 32.81C405.926 29.1338 406.147 25.4514 406.74 21.82L406.73 21.86ZM656.53 79.47L645.81 80.85C647.32 76.41 649.19 69.13 648.1 62.54C649.149 61.5793 649.96 60.3883 650.47 59.0609C650.98 57.7334 651.175 56.3057 651.04 54.89C657.41 62.5 656.81 75.94 656.53 79.44V79.47ZM638.73 68.06C641.925 66.9918 644.888 65.3255 647.46 63.15C648.38 69.62 646.46 76.73 645 80.95L635 82.23L632.24 81.7L638.73 68.06Z" fill="url(#paint0_linear)"/>
<path id="Vector_44" d="M717 184.1L690.91 194.99L660.6 89.3L667.71 80.86L680.74 78.84L717 184.1Z" fill="#74BFDA"/>
<path id="Vector_45" opacity="0.2" d="M717 184.1L690.91 194.99L660.6 89.3L667.71 80.86L680.74 78.84L717 184.1Z" fill="white"/>
<path id="Vector_46" d="M667.71 80.86L622.43 86.67L645.64 198.51L690.91 194.99L667.71 80.86Z" fill="#74BFDA"/>
<path id="Vector_47" opacity="0.07" d="M667.71 80.86L622.43 86.67L645.64 198.51L690.91 194.99L667.71 80.86Z" fill="white"/>
<path id="Vector_48" d="M655.94 83.38L655.22 83.29C655.22 83.02 658.22 56.62 641.65 53.29L641.79 52.58C659.07 56.05 656 83.11 655.94 83.38Z" fill="#535461"/>
<path id="Vector_49" d="M538.32 160.44H488.44V233.45H538.32V160.44Z" fill="#774E55"/>
<path id="Vector_50" opacity="0.2" d="M538.32 160.44H488.44V233.45H538.32V160.44Z" fill="black"/>
<path id="Vector_51" d="M669.51 202.72L641.32 204.89L645.66 95.02L655.05 89.24L668.06 91.41L669.51 202.72Z" fill="#74BFDA"/>
<path id="Vector_52" opacity="0.2" d="M669.51 202.72L641.32 204.89L645.66 95.02L655.05 89.24L668.06 91.41L669.51 202.72Z" fill="black"/>
<path id="Vector_53" d="M655.05 89.24L610.24 80.56L597.23 194.05L641.32 204.89L655.05 89.24Z" fill="#74BFDA"/>
<path id="Vector_54" d="M391.22 35.03H384.71L371.7 148.51L400.61 147.07L391.22 35.03Z" fill="#74BFDA"/>
<path id="Vector_55" opacity="0.2" d="M391.22 35.03H384.71L371.7 148.51L400.61 147.07L391.22 35.03Z" fill="black"/>
<path id="Vector_56" d="M389.05 33.58L381.1 147.79L450.49 155.02L458.44 43.7L389.05 33.58Z" fill="#74BFDA"/>
<path id="Vector_57" d="M472.9 626.31C472.9 626.31 464.23 625.59 462.78 650.89C462.78 650.89 464.23 664.62 460.61 671.13C456.99 677.64 459.16 696.43 470.01 698.6C476.952 699.879 484.068 699.879 491.01 698.6C491.01 698.6 496.07 698.6 492.46 680.53L485.23 627.76L472.9 626.31Z" fill="#5C3D53"/>
<path id="Vector_58" opacity="0.05" d="M472.9 626.31C472.9 626.31 464.23 625.59 462.78 650.89C462.78 650.89 464.23 664.62 460.61 671.13C456.99 677.64 459.16 696.43 470.01 698.6C476.952 699.879 484.068 699.879 491.01 698.6C491.01 698.6 496.07 698.6 492.46 680.53L485.23 627.76L472.9 626.31Z" fill="black"/>
<path id="Vector_59" d="M518.35 208.9C517.73 219.66 519.88 225.9 519.88 225.9L501.09 230.96C501.09 230.96 470.01 235.3 482.3 222.96C486.55 218.71 488.64 211.42 489.55 203.72C490.119 198.46 490.297 193.166 490.08 187.88C489.913 182.928 489.486 177.987 488.8 173.08C488.8 173.08 534.34 157.18 524.22 183.2C522.376 187.906 520.922 192.756 519.87 197.7C519.088 201.391 518.58 205.134 518.35 208.9Z" fill="#F8BDC5"/>
<path id="Vector_60" opacity="0.1" d="M524.22 183.21C522.376 187.916 520.922 192.766 519.87 197.71C514.48 198.855 508.882 198.55 503.648 196.825C498.415 195.1 493.733 192.016 490.08 187.89C489.913 182.938 489.486 177.997 488.8 173.09C488.8 173.09 534.34 157.19 524.22 183.21Z" fill="black"/>
<path id="Vector_61" d="M513.38 196.94C530.545 196.94 544.46 183.025 544.46 165.86C544.46 148.695 530.545 134.78 513.38 134.78C496.215 134.78 482.3 148.695 482.3 165.86C482.3 183.025 496.215 196.94 513.38 196.94Z" fill="#F8BDC5"/>
<path id="Vector_62" d="M458.44 181.04V190.44L442.54 231.64L438.2 227.3C437.961 227.043 437.74 226.769 437.54 226.48C427.04 211.56 419.4 112.37 419.4 112.37L409.29 28.5C409.29 28.5 398.45 2.50001 422.29 3.92001C446.13 5.34001 427.35 27.77 427.35 27.77C427.35 27.77 443.25 107.28 441.08 110.17C438.91 113.06 441.08 121.74 441.08 121.74C441.08 121.74 447.59 138.37 446.86 150.65C446.13 162.93 458.44 181.04 458.44 181.04Z" fill="#F8BDC5"/>
<path id="Vector_63" d="M637.7 71.17L600.11 150.68L594.33 161.5C594.33 161.5 576.33 225.02 555.54 240.23C554.345 241.122 553.05 241.871 551.68 242.46L547.34 207.76L551.34 197.68L551.64 196.91C556.278 192.386 559.964 186.98 562.48 181.01C566.82 170.89 579.11 150.65 579.11 150.65C579.11 150.65 581.28 144.87 581.28 140.53C581.28 136.19 622.48 64.63 622.48 64.63C622.48 64.63 626.09 32.1 643.48 48C660.87 63.9 637.7 71.17 637.7 71.17Z" fill="#F8BDC5"/>
<path id="Vector_64" d="M492.41 647.99C492.41 647.99 467.83 658.11 470.72 648.71C472.48 643.01 471.83 632.24 471.05 624.71C470.55 619.8 469.99 616.22 469.99 616.22L490.99 618.39C490.256 620.222 489.847 622.168 489.78 624.14C489.09 633.73 492.41 647.99 492.41 647.99Z" fill="#F8BDC5"/>
<path id="Vector_65" d="M530.63 619.87C526.84 633.03 527.83 655.95 527.83 655.95C527.83 655.95 505.42 658.84 507.59 653.06C509.1 649.06 511.31 629.24 512.51 617.59C513.04 612.5 513.37 608.97 513.37 608.97L533.61 613.31C532.232 615.301 531.223 617.523 530.63 619.87V619.87Z" fill="#F8BDC5"/>
<path id="Vector_66" opacity="0.1" d="M470 616.19L491 618.36C490.266 620.192 489.857 622.138 489.79 624.11C486.919 625.613 483.745 626.445 480.505 626.543C477.266 626.642 474.047 626.005 471.09 624.68C470.56 619.76 470 616.19 470 616.19Z" fill="black"/>
<path id="Vector_67" opacity="0.1" d="M533.62 613.3C532.234 615.292 531.218 617.518 530.62 619.87C523.79 620.97 516.62 619.04 512.51 617.59C513.04 612.5 513.37 608.97 513.37 608.97L533.62 613.3Z" fill="black"/>
<path id="Vector_68" d="M556.75 444.87L552.49 474.73C550.762 486.064 548.133 497.243 544.63 508.16C541.57 518.01 543.74 530.16 543.74 530.16C543.74 530.16 546.63 576.42 541.57 587.99C536.51 599.56 537.23 616.18 537.23 616.18C525.66 622.69 509.04 614.73 509.04 614.73L507.59 538.11C507.59 538.11 503.98 517.87 505.42 499.11C506.86 480.35 503.25 442.01 503.25 442.01C495.25 444.18 496.02 549.71 496.02 549.71V618.38C478.67 633.56 463.49 618.38 463.49 618.38C457.71 601.03 459.88 548.26 459.88 548.26L457.71 517.18C457.71 517.18 449.71 478.87 444.71 425.38C443.164 410.351 442.956 395.215 444.09 380.15C444.23 378.51 444.383 376.933 444.55 375.42C445.243 368.579 446.494 361.807 448.29 355.17C448.863 352.982 449.599 350.839 450.49 348.76L528.16 352.37L532.74 352.58L543.74 353.09C544.94 354.9 546.07 356.74 547.12 358.58C548.64 361.25 550.01 363.94 551.23 366.58C551.93 368.12 552.59 369.67 553.23 371.21C568 408.5 556.75 444.87 556.75 444.87Z" fill="#5E52AD"/>
<path id="Vector_69" opacity="0.1" d="M471.45 355.97C471.45 355.97 468.05 389.97 444.08 380.13C444.22 378.49 444.373 376.913 444.54 375.4C450.18 376.93 465.79 379.04 466.38 355.96L471.45 355.97Z" fill="black"/>
<path id="Vector_70" opacity="0.1" d="M553.19 371.22C536.59 377.15 530.33 361.36 528.19 352.35L532.77 352.56C535.26 366.73 545.2 367.56 551.25 366.56C551.93 368.14 552.58 369.69 553.19 371.22Z" fill="black"/>
<path id="Vector_71" d="M479.34 644.15C475.65 643.57 470.01 641.54 471.78 634.45C471.78 634.45 464.95 632.09 465.67 660.28C465.67 660.28 464.95 674.01 463.5 676.91C462.05 679.81 463.5 697.15 478.68 695.7C478.68 695.7 489.52 699.31 492.41 693.53C492.41 693.53 490.24 660.28 493.86 654.53C497.48 648.78 492.41 642.96 492.41 642.96C492.41 642.96 487.29 645.8 483.61 644.96C482.21 644.57 480.77 644.38 479.34 644.15Z" fill="#5C3D53"/>
<path id="Vector_72" d="M497.47 691.36C497.47 691.36 490.24 703.65 506.87 705.09C523.5 706.53 530.72 697.86 530.72 697.86C530.72 697.86 532.89 694.25 530.72 687.74C528.55 681.23 531.44 669.67 531.44 669.67C531.44 669.67 533.61 655.94 528.55 658.83C523.49 661.72 497.47 691.36 497.47 691.36Z" fill="#5C3D53"/>
<path id="Vector_73" opacity="0.05" d="M497.47 691.36C497.47 691.36 490.24 703.65 506.87 705.09C523.5 706.53 530.72 697.86 530.72 697.86C530.72 697.86 532.89 694.25 530.72 687.74C528.55 681.23 531.44 669.67 531.44 669.67C531.44 669.67 533.61 655.94 528.55 658.83C523.49 661.72 497.47 691.36 497.47 691.36Z" fill="black"/>
<path id="Vector_74" d="M516.27 647.27C516.27 647.27 507.6 643.66 505.43 650.88C503.26 658.1 504.71 676.18 500.37 681.24C496.03 686.3 490.25 700.03 507.6 699.31C524.95 698.59 528.6 692.8 528.6 692.8C528.6 692.8 527.88 674.73 530.05 669.67C532.22 664.61 530.05 656.67 530.05 656.67C530.05 656.67 530.72 646.5 516.27 647.27Z" fill="#5C3D53"/>
<path id="Vector_75" opacity="0.2" d="M407.84 45.15C408.641 45.15 409.29 44.5008 409.29 43.7C409.29 42.8992 408.641 42.25 407.84 42.25C407.039 42.25 406.39 42.8992 406.39 43.7C406.39 44.5008 407.039 45.15 407.84 45.15Z" fill="black"/>
<path id="Vector_76" opacity="0.2" d="M438.2 48.76C439.001 48.76 439.65 48.1108 439.65 47.31C439.65 46.5092 439.001 45.86 438.2 45.86C437.399 45.86 436.75 46.5092 436.75 47.31C436.75 48.1108 437.399 48.76 438.2 48.76Z" fill="black"/>
<path id="Vector_77" d="M438.56 47.32H437.84C437.84 47.01 438.35 16.52 420.84 13.71C417.39 13.16 414.57 13.94 412.46 16.03C405.23 23.2 408.22 43.45 408.25 43.65L407.54 43.76C407.41 42.91 404.47 22.94 411.96 15.52C414.24 13.25 417.28 12.4 420.96 12.99C439.08 15.89 438.57 47.01 438.56 47.32Z" fill="#535461"/>
<path id="Vector_78" d="M643.09 87.95L642.44 87.64C642.55 87.4 653.69 63.27 638.97 54.86L639.33 54.23C654.62 62.97 643.21 87.7 643.09 87.95Z" fill="#535461"/>
<path id="Vector_79" opacity="0.1" d="M519.88 225.86L501.09 230.92C501.09 230.92 470.01 235.26 482.3 222.92C486.55 218.67 488.64 211.38 489.55 203.68C494.46 211.38 500.37 209.19 500.37 209.19L518.29 208.84H518.36C517.73 219.66 519.88 225.86 519.88 225.86Z" fill="black"/>
<path id="Vector_80" opacity="0.1" d="M555.55 240.25C554.355 241.142 553.06 241.891 551.69 242.48L547.35 207.78L551.35 197.7L552.35 196.93C561.38 199.5 556.72 232.74 555.55 240.25Z" fill="black"/>
<path id="Vector_81" opacity="0.1" d="M458.44 181.04V190.44L442.54 231.64L438.2 227.3C437.961 227.043 437.74 226.769 437.54 226.48C439.42 205 458.44 181.04 458.44 181.04Z" fill="black"/>
<path id="Vector_82" opacity="0.1" d="M547.11 358.56C537 361.09 484.22 373.49 468.56 361.75C462.38 357.12 455.1 355.42 448.29 355.15C448.863 352.962 449.599 350.819 450.49 348.74L528.16 352.35L532.74 352.56L543.74 353.07C544.94 354.89 546.06 356.72 547.11 358.56Z" fill="black"/>
<path id="Vector_83" d="M411.1 10.09C411.1 10.09 421.94 28.16 429.17 10.09Z" fill="#F8BDC5"/>
<path id="Vector_84" d="M634.09 47.31C634.09 47.31 629.75 69 647.09 58.88Z" fill="#F8BDC5"/>
<g id="Group_4" opacity="0.1">
<path id="Vector_85" opacity="0.1" d="M499.89 449.14C499.54 444.74 499.28 441.99 499.28 441.99C491.28 444.16 492.05 549.69 492.05 549.69V618.36C486.97 622.8 482.05 624.64 477.7 625.03C482.92 625.49 489.14 624.03 495.7 618.36V549.69C495.7 549.69 495.14 473.22 499.89 449.14Z" fill="black"/>
<path id="Vector_86" opacity="0.1" d="M552.83 371.22C552.22 369.68 551.57 368.13 550.83 366.59C549.61 363.91 548.24 361.22 546.72 358.59C545.72 356.75 544.54 354.92 543.34 353.1L532.34 352.59L527.76 352.38L450.09 348.77L450.02 348.93L524.15 352.38L528.73 352.59L539.73 353.1C540.93 354.91 542.06 356.75 543.11 358.59C544.63 361.26 546 363.95 547.22 366.59C547.92 368.13 548.58 369.68 549.22 371.22C564 408.52 552.78 444.87 552.78 444.87L548.52 474.73C546.792 486.064 544.163 497.243 540.66 508.16C537.6 518.01 539.77 530.16 539.77 530.16C539.77 530.16 542.66 576.42 537.6 587.99C532.54 599.56 533.26 616.18 533.26 616.18C530.468 617.687 527.37 618.542 524.2 618.68C528.575 619.074 532.972 618.206 536.87 616.18C536.87 616.18 536.15 599.55 541.21 587.99C546.27 576.43 543.38 530.16 543.38 530.16C543.38 530.16 541.21 518 544.27 508.16C547.773 497.243 550.402 486.064 552.13 474.73L556.39 444.87C556.39 444.87 567.61 408.5 552.83 371.22Z" fill="black"/>
</g>
<path id="Vector_87" d="M518.29 210.32C528.29 215.03 551.69 196.94 551.69 196.94C561.81 199.83 554.58 241.76 554.58 241.76L554.19 243.5C551.99 253.39 550.66 263.44 549.43 273.5C548.5 281.09 541.57 288.03 541.57 288.03C529.28 311.16 548.8 356.7 548.8 356.7C548.8 356.7 485.91 373.33 468.57 360.31C451.23 347.29 425.2 357.42 425.2 357.42C437.49 346.58 438.2 279.35 438.2 279.35V227.35C439.65 205.66 459.2 181.09 459.2 181.09C467.2 203.5 489.43 204.98 489.43 204.98C494.36 212.98 500.43 210.73 500.43 210.73L518.29 210.32Z" fill="#EB6475"/>
<path id="Vector_88" opacity="0.1" d="M505.29 122.06C502.809 121.521 500.241 121.521 497.76 122.06C489.9 124.23 487.43 134.14 481.36 139.58C479.18 141.58 476.49 142.92 474.51 145.09C470.99 148.95 470.28 154.67 471.03 159.84C471.78 165.01 473.78 169.91 475.03 174.98C476.264 180.055 476.733 185.286 476.42 190.5C476.448 192.231 475.983 193.933 475.08 195.41C473.63 197.41 470.96 198.04 469.08 199.64C463.34 204.58 468.08 214.83 463.87 221.14C462.06 223.87 458.67 225.67 457.98 228.87C457.49 231.14 458.53 233.43 459.55 235.52C462.23 241.02 465.01 246.67 469.55 250.77C474.09 254.87 479.7 256.93 485.28 259.02C486.97 259.65 489.09 260.2 490.38 258.95C491.97 257.39 490.77 254.75 489.67 252.82C487.93 249.82 486.57 246.2 487.59 242.82C488.61 239.44 491.88 237.2 494.08 234.38C499.75 227.08 497.89 216.6 495.08 207.8C493.89 204.09 492.55 200.14 493.56 196.37C493.99 194.75 494.84 193.28 495.38 191.69C497.78 184.61 493.75 176.84 494.93 169.46C495.544 166.578 496.553 163.795 497.93 161.19L504.28 147.54C504.919 145.897 505.874 144.396 507.09 143.12C509.063 141.533 511.565 140.754 514.09 140.94C516.664 140.998 519.2 141.578 521.543 142.645C523.886 143.713 525.987 145.245 527.72 147.15C534.52 154.71 534.09 166.15 533.27 176.23L532.68 183.51C532.25 188.75 531.68 194.34 528.38 198.42C525.81 201.58 521.66 203.73 520.6 207.67C519.68 211.06 521.41 214.74 520.5 218.13C519.14 223.2 512.88 225.03 509.57 229.13C508.178 230.912 507.355 233.072 507.209 235.329C507.062 237.585 507.6 239.833 508.75 241.78C510.01 243.78 512.02 245.78 511.75 248.13C511.52 250.02 509.82 251.55 509.83 253.45C509.911 254.3 510.248 255.106 510.796 255.761C511.344 256.416 512.078 256.89 512.9 257.12C514.555 257.549 516.281 257.63 517.97 257.36L535.9 255.74C537.023 255.736 538.124 255.432 539.09 254.86C540.34 253.96 540.75 252.3 540.92 250.77C541.64 244.39 539.92 237.42 543.11 231.84C544.11 230.05 545.58 228.56 546.69 226.84C552.81 217.24 546.64 204.22 549.97 193.33C551.55 188.16 555.23 183.72 556.21 178.41C557.51 171.33 553.82 164.41 552.39 157.41C550.92 150.18 551.71 142.22 547.85 135.93C544.9 131.13 539.62 128.14 534.16 126.77C529.16 125.51 524.16 125.96 519.16 125.42C514.38 124.87 509.94 122.81 505.29 122.06Z" fill="black"/>
<path id="Vector_89" d="M505.29 120.61C502.809 120.071 500.241 120.071 497.76 120.61C489.9 122.78 487.43 132.69 481.36 138.13C479.18 140.13 476.49 141.47 474.51 143.64C470.99 147.5 470.28 153.22 471.03 158.39C471.78 163.56 473.78 168.46 475.03 173.53C476.264 178.605 476.733 183.836 476.42 189.05C476.448 190.781 475.983 192.483 475.08 193.96C473.63 195.96 470.96 196.59 469.08 198.19C463.34 203.13 468.08 213.38 463.87 219.69C462.06 222.42 458.67 224.22 457.98 227.42C457.49 229.69 458.53 231.98 459.55 234.07C462.23 239.57 465.01 245.22 469.55 249.32C474.09 253.42 479.7 255.48 485.28 257.57C486.97 258.2 489.09 258.75 490.38 257.5C491.97 255.94 490.77 253.3 489.67 251.37C487.93 248.37 486.57 244.75 487.59 241.37C488.61 237.99 491.88 235.75 494.08 232.93C499.75 225.63 497.89 215.15 495.08 206.35C493.89 202.64 492.55 198.69 493.56 194.92C493.99 193.3 494.84 191.83 495.38 190.24C497.78 183.16 493.75 175.39 494.93 168.01C495.544 165.128 496.553 162.345 497.93 159.74L504.28 146.09C504.919 144.447 505.874 142.946 507.09 141.67C509.063 140.083 511.565 139.304 514.09 139.49C516.664 139.548 519.2 140.128 521.543 141.195C523.886 142.263 525.987 143.795 527.72 145.7C534.52 153.26 534.09 164.7 533.27 174.78L532.68 182.06C532.25 187.3 531.68 192.89 528.38 196.97C525.81 200.13 521.66 202.28 520.6 206.22C519.68 209.61 521.41 213.29 520.5 216.68C519.14 221.75 512.88 223.58 509.57 227.68C508.178 229.462 507.355 231.622 507.209 233.879C507.062 236.135 507.6 238.383 508.75 240.33C510.01 242.33 512.02 244.33 511.75 246.68C511.52 248.57 509.82 250.1 509.83 252C509.911 252.85 510.248 253.656 510.796 254.311C511.344 254.966 512.078 255.44 512.9 255.67C514.555 256.099 516.281 256.18 517.97 255.91L535.9 254.29C537.023 254.286 538.124 253.982 539.09 253.41C540.34 252.51 540.75 250.85 540.92 249.32C541.64 242.94 539.92 235.97 543.11 230.39C544.11 228.6 545.58 227.11 546.69 225.39C552.81 215.79 546.64 202.77 549.97 191.88C551.55 186.71 555.23 182.27 556.21 176.96C557.51 169.88 553.82 162.96 552.39 155.96C550.92 148.73 551.71 140.77 547.85 134.48C544.9 129.68 539.62 126.69 534.16 125.32C529.16 124.06 524.16 124.51 519.16 123.97C514.38 123.43 509.94 121.37 505.29 120.61Z" fill="#774E55"/>
<path id="Vector_90" opacity="0.1" d="M466.75 286.21C466.75 286.21 481.21 290.55 502.17 281.15H513C513 281.15 513.72 291.27 541.91 286.93" fill="black"/>
</g>
</g>
<defs>
<linearGradient id="paint0_linear" x1="544.35" y1="709.14" x2="544.35" y2="-6.3112e-06" gradientUnits="userSpaceOnUse">
<stop stop-color="#808080" stop-opacity="0.25"/>
<stop offset="0.54" stop-color="#808080" stop-opacity="0.12"/>
<stop offset="1" stop-color="#808080" stop-opacity="0.1"/>
</linearGradient>
<clipPath id="clip0">
<rect width="1074" height="739" fill="white"/>
</clipPath>
</defs>
</svg>
